# xmcd CD database file
#
# Track frame offsets:
#	150
#	16800
#	39850
#	59527
#	77417
#	92930
#	118735
#	137837
#	149587
#	168795
#	191392
#	206260
#	225675
#	238485
#	261077
#
# Disc length: 3656 seconds
#
# Revision: 0
# Processed by: cddbd v1.5.2PL0 Copyright (c) Steve Scherf et al.
# Submitted via: CDex 1.70beta2
#
DISCID=ca0e460f
DTITLE=Aaron Watson - A Texas Cafe
DYEAR=2001
DGENRE=Country
TTITLE0=What's Her Name
TTITLE1=Old Man Walker's Property
TTITLE2=Just A Call
TTITLE3=Not Just Another Pretty Face
TTITLE4=Amarillo Fair
TTITLE5=Strong Arm Of The Law
TTITLE6=On The Losing End
TTITLE7=When All Those Aggies Move To Austin
TTITLE8=Language Of Love
TTITLE9=A Texas Cafe
TTITLE10=Charlene Gene
TTITLE11=Everytime I Hear Those Songs
TTITLE12=Going To Texas
TTITLE13=Show Her That You Love Her
TTITLE14=Thank God For Country Girls
EXTD=YEAR: 2001
EXTT0=
EXTT1=
EXTT2=
EXTT3=
EXTT4=
EXTT5=
EXTT6=
EXTT7=
EXTT8=
EXTT9=
EXTT10=
EXTT11=
EXTT12=
EXTT13=
EXTT14=
PLAYORDER=
